<svg width="33" height="32" viewBox="0 0 33 32" fill="none" xmlns="http://www.w3.org/2000/svg">
<path d="M11.8214 28.9999C11.7475 28.9626 11.6729 28.9274 11.5997 28.8887C11.4006 28.7821 11.2418 28.6132 11.1477 28.4079C11.0536 28.2026 11.0292 27.9722 11.0783 27.7517C11.129 27.5315 11.2523 27.3348 11.4285 27.1932C11.6046 27.0516 11.8232 26.9735 12.0492 26.9713C14.773 26.9686 17.4968 26.9686 20.2206 26.9713C20.4465 26.9732 20.6653 27.0512 20.8414 27.1926C21.0176 27.3341 21.1409 27.5308 21.1915 27.751C21.2413 27.9715 21.2173 28.2022 21.1231 28.4077C21.0289 28.6131 20.8697 28.7819 20.6701 28.888C20.5969 28.9267 20.523 28.9626 20.4491 28.9999H11.8214Z" fill="#9178CC"/>
<path d="M7 13.0904C7 7.97481 9.80765 4.3515 13.8717 3.29041C18.8334 1.99608 23.9836 5.15834 25.0589 10.1885C25.6413 12.9155 25.0874 15.4228 23.4242 17.6657C21.8377 19.8041 20.2321 21.9283 18.6313 24.0566C17.3241 25.7944 14.9409 25.7889 13.633 24.0464C11.9942 21.8632 10.3453 19.6868 8.72487 17.4901C7.56004 15.9123 7.00678 14.1196 7 13.0904ZM15.9593 5.04511C15.7816 5.06342 15.4277 5.08715 15.0779 5.138C11.7041 5.6282 9.13845 8.50908 9.03811 11.9392C8.98861 13.6471 9.51272 15.174 10.5467 16.5374C12.1122 18.6061 13.6656 20.6862 15.2189 22.7623C15.7742 23.5027 16.4963 23.504 17.0495 22.7623C18.6112 20.6799 20.1729 18.5979 21.7346 16.5164C22.9496 14.8987 23.4296 13.0945 23.1483 11.0835C22.6682 7.66902 19.6287 5.04579 15.9593 5.04511Z" fill="#9178CC"/>
<path d="M19.1798 12.1533C19.1786 12.7556 18.9988 13.3441 18.6631 13.8442C18.3274 14.3443 17.8509 14.7337 17.2938 14.9629C16.7368 15.1922 16.1243 15.2511 15.5338 15.1322C14.9433 15.0133 14.4014 14.722 13.9765 14.295C13.5516 13.868 13.2629 13.3246 13.1469 12.7336C13.0309 12.1425 13.0928 11.5303 13.3248 10.9744C13.5568 10.4185 13.9485 9.94393 14.4502 9.61068C14.952 9.27742 15.5413 9.10047 16.1437 9.10222C16.5436 9.10239 16.9395 9.18154 17.3088 9.33511C17.6781 9.48869 18.0133 9.71367 18.2954 9.99715C18.5775 10.2806 18.8009 10.617 18.9526 10.987C19.1044 11.357 19.1816 11.7534 19.1798 12.1533V12.1533ZM16.1362 11.1363C15.935 11.1353 15.7381 11.1941 15.5703 11.3051C15.4025 11.4161 15.2715 11.5743 15.1936 11.7598C15.1158 11.9454 15.0948 12.1498 15.1331 12.3473C15.1715 12.5448 15.2676 12.7264 15.4092 12.8693C15.5509 13.0122 15.7317 13.1098 15.9288 13.1499C16.126 13.19 16.3306 13.1707 16.5167 13.0945C16.7029 13.0183 16.8623 12.8886 16.9748 12.7217C17.0872 12.5549 17.1477 12.3585 17.1485 12.1573C17.1449 11.8892 17.0373 11.6329 16.8485 11.4424C16.6597 11.252 16.4043 11.1422 16.1362 11.1363Z" fill="#9178CC"/>
</svg>
