<svg width="112" height="147" viewBox="0 0 112 147" fill="none" xmlns="http://www.w3.org/2000/svg">
<g clip-path="url(#clip0_1_18)">
<path d="M29.8521 72.9456C29.8521 72.9456 8.78135 103.011 15.8804 121.521C22.9794 140.031 41.1984 104.897 29.8521 72.9456Z" fill="#F2CBCF"/>
<path d="M83.8906 72.9456C83.8906 72.9456 104.961 103.011 97.8548 121.521C90.7482 140.031 72.5367 104.897 83.8906 72.9456Z" fill="#F2CBCF"/>
<path d="M56.9355 136.817C38.5127 136.817 24.1714 121.732 26.1781 104.504L30.2972 69.1064H83.5813L87.7004 104.504C89.7071 121.747 75.3658 136.817 56.9355 136.817Z" fill="#F6DDE0"/>
<path d="M30.2972 69.1064L29.2863 77.8031C32.8777 81.5044 37.1759 84.447 41.926 86.4565C46.6761 88.466 51.7814 89.5014 56.9392 89.5014C62.097 89.5014 67.2023 88.466 71.9525 86.4565C76.7026 84.447 81.0007 81.5044 84.5922 77.8031L83.5813 69.1064H30.2972Z" fill="#F2CBCF"/>
<path d="M86.1765 54.3076C86.1765 59.1802 93.4414 63.125 98.3074 63.125C100.601 63.0579 102.778 62.0999 104.376 60.4544C105.974 58.8088 106.869 56.6052 106.869 54.3113C106.869 52.0175 105.974 49.8139 104.376 48.1683C102.778 46.5228 100.601 45.5648 98.3074 45.4977C93.4414 45.5279 86.1765 49.4727 86.1765 54.3076Z" fill="#F2CBCF"/>
<path d="M102.947 53.4251C102.947 53.4251 103.015 50.6041 98.2999 51.0039C93.5848 51.4036 95.5387 58.2524 98.2999 57.7169C102.389 56.9626 98.2999 53.4326 98.2999 53.4326" stroke="#EBAAB1" stroke-width="1.27" stroke-miterlimit="10" stroke-linecap="round"/>
<path d="M27.702 54.3076C27.702 59.1802 20.437 63.125 15.5711 63.125C13.2777 63.0579 11.1008 62.0999 9.50241 60.4544C7.90399 58.8088 7.00989 56.6052 7.00989 54.3113C7.00989 52.0175 7.90399 49.8139 9.50241 48.1683C11.1008 46.5228 13.2777 45.5648 15.5711 45.4977C20.437 45.5279 27.702 49.4727 27.702 54.3076Z" fill="#F2CBCF"/>
<path d="M10.9314 53.4251C10.9314 53.4251 10.8636 50.6041 15.5786 51.0039C20.2937 51.4036 18.3398 58.2524 15.5786 57.7169C11.4822 56.9626 15.5786 53.4326 15.5786 53.4326" stroke="#EBAAB1" stroke-width="1.27" stroke-miterlimit="10" stroke-linecap="round"/>
<path d="M94.4493 54.3825C99.3391 33.6689 86.5082 12.914 65.7908 8.02518C45.0733 3.13633 24.3146 15.9648 19.4249 36.6784C14.5351 57.392 27.366 78.1469 48.0834 83.0357C68.8008 87.9245 89.5596 75.0961 94.4493 54.3825Z" fill="#F6DDE0"/>
<path d="M27.3097 103.976C26.8842 103.973 26.4625 104.055 26.0692 104.218C25.6759 104.38 25.319 104.619 25.0196 104.921C24.7202 105.224 24.4842 105.583 24.3256 105.977C24.1669 106.372 24.0888 106.794 24.0959 107.22C24.5259 124.251 38.8824 138.326 56.9354 138.326C74.9961 138.326 89.3752 124.251 89.775 107.22C89.782 106.795 89.7042 106.373 89.546 105.979C89.3878 105.585 89.1526 105.226 88.8539 104.924C88.5553 104.622 88.1993 104.382 87.8069 104.22C87.4145 104.057 86.9936 103.974 86.5687 103.976H27.3097Z" fill="#DFDDF0"/>
<path d="M31.6853 103.976C31.3222 103.974 30.9623 104.045 30.6268 104.183C30.2912 104.322 29.9866 104.526 29.7309 104.784C29.4752 105.042 29.2735 105.348 29.1376 105.685C29.0016 106.021 28.9342 106.382 28.9392 106.745C29.3089 121.249 41.553 133.235 56.9581 133.235C72.3707 133.235 84.6148 121.249 84.9769 106.745C84.983 106.382 84.9165 106.022 84.7814 105.685C84.6463 105.348 84.4453 105.042 84.1902 104.784C83.9351 104.527 83.631 104.322 83.2958 104.183C82.9607 104.045 82.6012 103.974 82.2384 103.976H31.6853Z" fill="white"/>
<path d="M10.9314 124.832C10.9314 124.832 16.7253 112.696 27.702 112.696C38.6787 112.696 48.735 120.389 42.5262 134.004C36.3174 147.619 0.950536 153.54 10.9314 124.832Z" fill="#F6DDE0"/>
<path d="M5.62035 123.022C1.37301 122.562 -1.49375 127.6 0.829836 131.447C4.3982 137.345 11.3011 147.287 17.2308 146.992C19.4563 146.894 21.3121 146.759 22.8436 146.623C23.5044 146.563 24.1383 146.332 24.6831 145.953C25.228 145.574 25.6651 145.061 25.9518 144.462C26.2385 143.864 26.3649 143.202 26.3186 142.54C26.2723 141.878 26.0549 141.239 25.6877 140.687C22.5267 135.957 17.2232 129.063 10.9314 124.968C9.33511 123.918 7.51725 123.252 5.62035 123.022V123.022Z" fill="#CDE8F6"/>
<path d="M101.091 124.832C101.091 124.832 95.2973 112.696 84.3206 112.696C73.3439 112.696 63.2876 120.389 69.504 134.004C75.7203 147.619 111.057 153.54 101.091 124.832Z" fill="#F6DDE0"/>
<path d="M106.372 123.022C110.627 122.562 113.494 127.6 111.163 131.447C107.594 137.345 100.691 147.287 94.7617 146.992C92.5437 146.894 90.6803 146.759 89.1489 146.623C88.488 146.563 87.8542 146.332 87.3093 145.953C86.7645 145.574 86.3273 145.061 86.0407 144.462C85.754 143.864 85.6276 143.202 85.6739 142.54C85.7202 141.878 85.9376 141.239 86.3047 140.687C89.4657 135.957 94.7693 129.063 101.061 124.968C102.658 123.919 104.476 123.253 106.372 123.022V123.022Z" fill="#CDE8F6"/>
<path d="M45.786 64.1086C46.6532 58.7673 43.0254 53.7344 37.683 52.8673C32.3407 52.0003 27.3068 55.6275 26.4396 60.9689C25.5724 66.3102 29.2003 71.3431 34.5427 72.2101C39.885 73.0772 44.9188 69.45 45.786 64.1086Z" fill="#F2CBCF"/>
<path d="M84.533 69.4695C88.3601 65.6432 88.3601 59.4395 84.533 55.6131C80.706 51.7867 74.5011 51.7867 70.674 55.6131C66.847 59.4394 66.847 65.6432 70.674 69.4695C74.5011 73.2959 80.706 73.2959 84.533 69.4695Z" fill="#F2CBCF"/>
<path d="M42.745 50.5362C42.745 51.2821 42.5238 52.0113 42.1093 52.6314C41.6948 53.2516 41.1057 53.735 40.4164 54.0205C39.7272 54.3059 38.9687 54.3806 38.237 54.2351C37.5053 54.0896 36.8332 53.7304 36.3057 53.2029C35.7781 52.6755 35.4189 52.0035 35.2733 51.2719C35.1278 50.5404 35.2025 49.7821 35.488 49.093C35.7735 48.4038 36.257 47.8148 36.8773 47.4004C37.4976 46.986 38.2269 46.7648 38.9729 46.7648C39.9733 46.7648 40.9328 47.1622 41.6402 47.8694C42.3476 48.5767 42.745 49.536 42.745 50.5362V50.5362Z" fill="#463D3F"/>
<path d="M80.2543 50.5362C80.2543 51.2821 80.0331 52.0113 79.6186 52.6314C79.2041 53.2516 78.615 53.735 77.9258 54.0205C77.2365 54.3059 76.4781 54.3806 75.7464 54.2351C75.0147 54.0896 74.3425 53.7304 73.815 53.2029C73.2875 52.6755 72.9282 52.0035 72.7827 51.2719C72.6371 50.5404 72.7118 49.7821 72.9973 49.093C73.2828 48.4038 73.7663 47.8148 74.3866 47.4004C75.0069 46.986 75.7362 46.7648 76.4823 46.7648C77.4827 46.7648 78.4421 47.1622 79.1495 47.8694C79.8569 48.5767 80.2543 49.536 80.2543 50.5362Z" fill="#463D3F"/>
<path d="M50.6135 53.0856C51.0209 55.6426 53.6312 57.6113 56.8601 57.6113C60.0889 57.6113 62.6992 55.6426 63.1066 53.0856" stroke="#EBAAB1" stroke-width="1.16" stroke-miterlimit="10" stroke-linecap="round"/>
<path d="M56.9355 14.5198C56.9355 14.5198 58.7763 -3.56014 65.8526 0.63361C72.929 4.82736 56.9355 14.5198 56.9355 14.5198Z" fill="#7A686C"/>
<path d="M56.9506 14.4745C56.9506 14.4745 67.203 9.35297 67.3539 14.5424C67.5048 19.7317 56.9506 14.4745 56.9506 14.4745Z" fill="#7A686C"/>
</g>
<defs>
<clipPath id="clip0_1_18">
<rect width="112" height="147" fill="white"/>
</clipPath>
</defs>
</svg>
