<svg width="28" height="28" viewBox="0 0 28 28" fill="none" xmlns="http://www.w3.org/2000/svg">
<circle cx="14.0001" cy="15" r="9" fill="#9178CC"/>
<ellipse cx="4.50006" cy="15" rx="1.5" ry="2" fill="#9178CC"/>
<ellipse cx="23.5001" cy="15" rx="1.5" ry="2" fill="#9178CC"/>
<path d="M2 14.538C2.04 14.3986 2.07688 14.258 2.12125 14.1205C2.48 12.9998 3.2325 12.293 4.35625 11.9655C4.40132 11.953 4.44338 11.9314 4.4799 11.9022C4.51642 11.873 4.54665 11.8367 4.56875 11.7955C5.40375 9.42734 6.91437 7.62484 9.08 6.36172C9.10479 6.3441 9.12858 6.32511 9.15125 6.30484C7.695 5.70109 6.91937 4.62484 6.8125 3.03922H8.23375C8.2775 3.79859 8.60875 4.40234 9.275 4.79734C9.70812 5.05297 10.1794 5.09422 10.7 5.04734C10.2819 4.43734 10.0581 3.78359 10.0487 3.04359H11.455C11.4844 3.46172 11.5869 3.85609 11.8387 4.20047C12.2719 4.78859 12.8575 5.07234 13.5887 5.06484C14.7481 5.05234 15.8912 5.16547 16.9944 5.54047C20.0935 6.59422 22.2142 8.65672 23.3562 11.728C23.4056 11.8598 23.4575 11.9405 23.6156 11.978C24.945 12.3123 25.9181 13.5498 25.9575 14.8748C26.005 16.4555 24.9212 17.6823 23.675 17.9998C23.4875 18.048 23.4006 18.1392 23.3325 18.3167C21.9862 21.8423 19.4575 24.0436 15.77 24.7542C10.9375 25.6873 6.24187 22.9086 4.59625 18.2611C4.57845 18.2001 4.54418 18.1452 4.4972 18.1024C4.45023 18.0596 4.39238 18.0306 4.33 18.0186C3.08 17.6436 2.30312 16.8242 2.04312 15.5336C2.03223 15.4967 2.01779 15.4609 2 15.4267L2 14.538Z" fill="#9178CC"/>
<path d="M16.1612 18.148L17.3656 18.8586C16.6081 20.0561 15.5406 20.7299 14.1506 20.7868C12.6193 20.8493 11.4418 20.1674 10.5831 18.8643L11.7931 18.148C12.8462 19.7905 15.1206 19.7824 16.1612 18.148Z" fill="white"/>
<path d="M20.3125 15.2731H18.9256C18.7825 14.6481 18.4787 14.3713 17.9581 14.3875C17.4931 14.4025 17.1881 14.7081 17.0831 15.2725H15.72C15.5662 14.1719 16.6494 13.0419 17.9244 12.96C19.1812 12.8831 20.3219 13.9781 20.3125 15.2731Z" fill="white"/>
<path d="M9.02875 15.2727H7.63562C7.65625 14.4846 7.9675 13.8521 8.605 13.4039C9.37187 12.8646 10.195 12.8139 11.0312 13.2358C11.4032 13.4271 11.7143 13.7184 11.9296 14.0769C12.145 14.4355 12.2559 14.847 12.25 15.2652H10.8687C10.825 14.9802 10.7344 14.6902 10.4525 14.5446C10.2758 14.4525 10.0804 14.4021 9.88124 14.3971C9.43312 14.3946 9.15437 14.6977 9.02875 15.2727Z" fill="white"/>
</svg>
