<svg width="229" height="175" viewBox="0 0 229 175" fill="none" xmlns="http://www.w3.org/2000/svg">
<g clip-path="url(#clip0_1_271)">
<path d="M22.2683 10.0443L20.3239 7.83806L37.7551 16.862L37.2693 17.808L22.2683 10.0443V10.0443Z" fill="#8F9BB3"/>
<path d="M32.445 15.3012L34.9549 16.6058L35.4453 15.6478L32.9354 14.3432L32.445 15.3012Z" fill="#8F9BB3"/>
<path d="M33.091 16.2106C32.8282 16.7174 33.0184 17.4112 33.5475 17.7238L35.0219 18.6325L37.1377 14.542L35.5472 13.865C34.9813 13.6486 34.3024 13.8721 34.0443 14.3669L33.8258 14.794L33.3049 15.7955L33.0864 16.2226L33.091 16.2106Z" fill="#C5CEE0"/>
<path d="M33.4494 17.2585C33.4126 17.3548 33.3712 17.4632 33.3343 17.5595C33.3928 17.6233 33.4678 17.6796 33.5429 17.7359L35.0173 18.6446L37.1331 14.5541L35.5426 13.877C35.4583 13.8448 35.3741 13.8126 35.2806 13.8044C35.2197 13.8915 35.1587 13.9787 35.1099 14.0704L34.731 14.8088L33.8358 16.5367L33.4569 17.2751L33.4494 17.2585Z" fill="#2E3A59"/>
<path d="M65.728 36.3612C64.1238 39.4742 65.3337 43.2767 68.4468 44.8808L71.7553 46.5873L81.1858 28.3455L77.8773 26.639C74.7568 25.0182 70.9544 26.2281 69.3502 29.3412L65.7205 36.3446L65.728 36.3612Z" fill="#EDF1F7"/>
<path d="M158.638 82.6736L160.838 78.4358C161.805 76.5559 165.818 76.7098 169.817 78.7768L298.497 145.347C302.496 147.414 304.936 150.597 303.965 152.489L301.777 156.731C300.81 158.611 296.797 158.457 292.799 156.39L164.118 89.8197C160.119 87.7527 157.679 84.5701 158.65 82.6782L158.638 82.6736Z" fill="#EED7FA"/>
<path d="M206.587 111.797L218.719 118.077L224.429 107.039L212.297 100.759L206.587 111.797Z" fill="#CD7BEE"/>
<path d="M84.3283 26.1305L84.328 26.1304C80.0736 23.933 74.8894 25.569 72.6947 29.8147L68.2452 38.4168L68.2331 38.4122L68.0278 38.8092C65.8336 43.0541 67.4976 48.2463 71.7407 50.4397C71.7407 50.4397 71.7408 50.4398 71.7408 50.4398L200.433 117.015L200.434 117.015C204.688 119.212 209.872 117.576 212.067 113.331L216.722 104.332C218.916 100.087 217.252 94.8943 213.009 92.7009L84.3283 26.1305Z" fill="white" stroke="#E4E9F2"/>
<path d="M68.484 39.0434C68.3098 39.3908 68.1597 39.7475 68.0382 40.1013L210.834 113.973C211.261 113.542 211.624 113.06 211.918 112.51L215.984 104.652C216.265 104.097 216.446 103.518 216.561 102.927L73.7654 29.0555C73.5476 29.3725 73.3418 29.6941 73.1556 30.0369L68.5007 39.036L68.484 39.0434Z" fill="#D7E4FD"/>
<path d="M194.741 113.506L200.663 116.571C203.313 117.943 206.355 117.712 208.707 116.251L217.166 99.901C217.009 97.1358 215.441 94.5216 212.779 93.1451L206.857 90.0806L194.741 113.506V113.506Z" fill="#DBDFFD"/>
<path d="M197.935 107.316L210.067 113.597L215.777 102.558L203.646 96.2779L197.935 107.316V107.316Z" fill="#C4CFFD"/>
<path d="M34.1443 17.607C33.686 18.4807 34.03 19.6748 34.9242 20.2237L43.5766 25.5327C44.4571 26.1177 45.5404 25.8832 45.9866 25.0049L47.2607 22.5386C47.2607 22.5386 47.3021 22.4302 47.3205 22.3821C47.3389 22.3339 47.3814 22.2949 47.4045 22.2347L48.6786 19.7684C49.1368 18.8947 48.6813 17.9201 47.7124 17.4945L38.3907 13.5029C37.4033 13.1254 36.2481 13.5119 35.7945 14.3735L35.4156 15.1119L34.5203 16.8399L34.1414 17.5783L34.1443 17.607Z" fill="#CD7BEE"/>
<path d="M41.9319 23.6618C41.8157 23.8934 41.7283 24.1222 41.6603 24.3722L43.5841 25.5494C44.4645 26.1344 45.5478 25.8999 45.994 25.0216L47.2681 22.5552C47.2681 22.5552 47.305 22.4589 47.328 22.3987C47.3464 22.3505 47.3768 22.307 47.4119 22.2514L48.686 19.785C49.1442 18.9113 48.6934 17.9247 47.7198 17.5111L45.6328 16.6166C45.4777 16.8057 45.3374 17.0281 45.2259 17.2477L44.4727 18.7125L42.6823 22.1683L41.9291 23.6331L41.9319 23.6618Z" fill="#B363E2"/>
<path d="M43.1215 24.2684C42.2217 26.0084 42.8809 28.3996 44.6814 29.5019L61.7546 40.0038C63.5201 41.1618 65.6701 40.7002 66.5699 38.9603L69.1135 34.0396C69.1549 33.9313 69.2158 33.8441 69.2406 33.7432C69.3015 33.6561 69.355 33.5523 69.4039 33.4606L71.9475 28.5399C72.8473 26.8 71.965 24.848 70.0225 24.0087L51.5867 16.1326C49.6165 15.3656 47.2459 16.1154 46.4063 17.8784L45.6531 19.3432L43.8627 22.799L43.1094 24.2638L43.1215 24.2684Z" fill="#CD7BEE"/>
<path d="M61.0633 39.5739L61.7666 40.0084C63.5321 41.1664 65.6821 40.7048 66.5819 38.9649L69.1255 34.0442C69.167 33.9359 69.2279 33.8487 69.2573 33.7358C69.3182 33.6486 69.3716 33.5449 69.4205 33.4531L71.9641 28.5325C72.864 26.7925 71.9817 24.8405 70.0392 24.0013L69.2777 23.6826L61.0633 39.5739Z" fill="#B363E2"/>
<path d="M85.5078 43.8265C85.1243 44.5769 85.5585 45.571 86.4804 46.0477L127.05 67.0365C127.984 67.5178 129.034 67.2982 129.429 66.5523C129.813 65.8019 129.379 64.8078 128.457 64.3311L87.8873 43.3423C86.9534 42.861 85.9033 43.0806 85.5078 43.8265V43.8265ZM130.638 67.1802C130.22 67.9862 130.539 68.9916 131.345 69.4102C132.152 69.8288 133.157 69.5093 133.576 68.7032C133.994 67.8972 133.675 66.8918 132.869 66.4732C132.062 66.0546 131.057 66.3741 130.638 67.1802V67.1802Z" fill="#E9F6FF"/>
<path d="M61.4356 41.9934L71.4755 22.5906C71.9383 21.7049 73.2781 21.4856 74.4797 22.0968C75.6888 22.7247 76.2845 23.9461 75.8217 24.8318L65.7818 44.2346C65.3189 45.1203 63.9792 45.3396 62.7776 44.7284C61.5685 44.1006 60.9728 42.8791 61.4356 41.9934V41.9934Z" fill="#CD7BEE"/>
<path d="M67.5762 42.7538C67.5734 43.1944 67.6113 43.6367 67.6825 44.0642L69.2269 44.8617L70.2165 45.378L73.94 47.2983L74.9296 47.8146L78.6531 49.735L79.6427 50.2513L83.3662 52.1717L84.3558 52.688L88.2628 54.7061L89.2523 55.2224L91.8465 56.5592L92.836 57.0755L96.5596 58.9959L97.5491 59.5122L101.273 61.4326L102.262 61.9489L105.986 63.8693L106.975 64.3856L110.455 66.1852L111.445 66.7015L114.461 68.2688L115.451 68.7851L119.175 70.7055L120.164 71.2218L123.888 73.1422L124.877 73.6585L128.601 75.5789L129.59 76.0952L132.643 77.6763L133.633 78.1926L137.076 79.9784L138.066 80.4947L141.789 82.4151L142.779 82.9314L146.503 84.8518L147.492 85.3681L151.216 87.2885L152.205 87.8048L154.831 89.1674L155.82 89.6837L159.691 91.688L160.681 92.2043L164.404 94.1247L165.394 94.641L169.118 96.5614L170.107 97.0777L173.831 98.998L174.82 99.5143L177.023 100.646L178.013 101.163L182.311 103.386L183.3 103.902L187.024 105.822L188.013 106.339L191.737 108.259L192.727 108.775L196.45 110.696L197.44 111.212L207.911 116.637C208.303 116.441 208.692 116.218 209.05 115.968L197.956 110.222L200.032 106.2L199.043 105.683L196.966 109.706L193.243 107.786L195.319 103.763L194.33 103.247L192.253 107.269L188.53 105.349L190.606 101.326L189.616 100.81L187.54 104.833L183.817 102.912L185.893 98.8895L184.903 98.3732L182.827 102.396L178.529 100.173L183.024 91.4855L182.034 90.9692L177.54 99.657L175.336 98.5248L177.413 94.502L176.423 93.9857L174.347 98.0085L170.623 96.0882L172.7 92.0653L171.71 91.549L169.634 95.5719L165.91 93.6515L167.986 89.6286L166.997 89.1123L164.921 93.1352L161.197 91.2148L163.273 87.1919L162.284 86.6756L160.208 90.6985L156.337 88.6942L160.831 80.0064L159.842 79.4901L155.347 88.1779L152.721 86.8152L154.798 82.7924L153.808 82.2761L151.732 86.2989L148.008 84.3786L150.085 80.3557L149.095 79.8394L147.019 83.8623L143.295 81.9419L145.371 77.919L144.382 77.4027L142.306 81.4256L138.582 79.5052L140.658 75.4824L139.669 74.966L137.593 78.9889L134.149 77.2031L138.643 68.5153L137.654 67.999L133.159 76.6868L130.107 75.1056L132.183 71.0828L131.193 70.5665L129.117 74.5893L125.393 72.669L127.47 68.6461L126.48 68.1298L124.404 72.1527L120.68 70.2323L122.757 66.2094L121.767 65.6931L119.691 69.716L115.967 67.7956L118.043 63.7728L117.054 63.2565L114.978 67.2793L111.961 65.712L116.456 57.0242L115.466 56.5079L110.972 65.1957L107.492 63.3961L109.568 59.3732L108.578 58.8569L106.502 62.8797L102.779 60.9594L104.855 56.9365L103.865 56.4202L101.789 60.4431L98.0654 58.5227L100.142 54.4998L99.1521 53.9835L97.0759 58.0064L93.3523 56.086L95.4285 52.0632L94.439 51.5469L92.3628 55.5697L89.7686 54.2329L94.2631 45.5451L93.2736 45.0288L88.7791 53.7166L84.8721 51.6985L86.9483 47.6756L85.9587 47.1593L83.8826 51.1822L80.159 49.2618L82.2352 45.239L81.2456 44.7227L79.1695 48.7455L75.4459 46.8251L77.522 42.8023L76.5325 42.286L74.4564 46.3088L70.7328 44.3885L72.8089 40.3656L71.8194 39.8493L69.7432 43.8722L67.5762 42.7538V42.7538Z" fill="#BFC8FD"/>
<path d="M196.243 110.589L196.498 110.714L197.488 111.23L207.964 116.643C208.201 116.527 208.439 116.411 208.657 116.273C208.662 116.261 208.678 116.254 208.695 116.246L208.895 115.867L198.009 110.229L200.085 106.206L199.095 105.69L197.019 109.712L196.764 109.587L196.247 110.577L196.243 110.589Z" fill="#ADB8EE"/>
<path d="M192.316 128.009L217.283 79.7408C218.636 77.1392 222.425 76.4346 225.789 78.1761C229.153 79.9177 230.768 83.4194 229.414 86.0211L204.447 134.289C203.094 136.891 199.305 137.595 195.941 135.854C192.577 134.112 190.962 130.61 192.316 128.009V128.009Z" fill="#EED7FA"/>
<path d="M91.4251 48.6005L92.4146 49.1168L93.8048 46.4188L92.8153 45.9025L91.4251 48.6005ZM113.63 60.0841L114.619 60.6004L116.009 57.9025L115.02 57.3862L113.63 60.0841Z" fill="#D7E8FD"/>
</g>
<defs>
<clipPath id="clip0_1_271">
<rect width="64.6492" height="317.587" fill="white" transform="translate(0 61) rotate(-69.078)"/>
</clipPath>
</defs>
</svg>
