<svg width="32" height="32" viewBox="0 0 32 32" fill="none" xmlns="http://www.w3.org/2000/svg">
<path d="M0 6.93823C0.0413218 6.80112 0.085148 6.66526 0.125218 6.52689C0.518401 5.06059 1.87138 4.00313 3.38463 4C11.7905 4 20.1961 4 28.6016 4C30.4648 4 31.995 5.53642 31.9962 7.40467C32.0013 13.259 32.0013 19.1138 31.9962 24.969C31.9928 25.8745 31.6301 26.7417 30.9879 27.3801C30.3457 28.0185 29.4765 28.3761 28.5709 28.3742C20.1964 28.3772 11.822 28.3772 3.44787 28.3742C1.77308 28.3742 0.384418 27.221 0.0588523 25.5763C0.0440432 25.5292 0.0243167 25.4839 0 25.441L0 6.93823ZM16.0116 26.5041H28.2911C29.4994 26.5041 30.1242 25.8849 30.1242 24.6885V7.68453C30.1242 6.5006 29.4982 5.87576 28.3136 5.87576C20.106 5.87534 11.8994 5.87618 3.69392 5.87826C2.50435 5.87826 1.87826 6.49872 1.87826 7.68015V24.7097C1.87826 25.8705 2.51187 26.5035 3.67326 26.5035L16.0116 26.5041Z" fill="#9178CC"/>
<path d="M7.51305 19.0023H4.8553C4.11151 19.0023 3.75464 18.6411 3.75464 17.8872C3.75464 16.7415 3.75464 15.5956 3.75464 14.4494C3.75464 13.7463 4.13029 13.3775 4.83464 13.3769H7.51305C7.51305 12.4941 7.51305 11.6426 7.51305 10.7918C7.51052 10.6361 7.52607 10.4806 7.55938 10.3285C7.60509 10.1282 7.71795 9.9495 7.87922 9.82217C8.04049 9.69484 8.24045 9.62651 8.44592 9.62851C9.71604 9.6235 10.9866 9.6235 12.2575 9.62851C12.7878 9.62851 13.176 10.0455 13.1804 10.6046C13.1873 11.4066 13.1804 12.2086 13.1804 13.0113V13.3763C14.1039 13.3763 14.9961 13.3763 15.8895 13.3763C16.0137 13.3713 16.138 13.3835 16.2589 13.4126C16.6771 13.5322 16.9313 13.874 16.9325 14.3167C16.9363 15.5563 16.9363 16.796 16.9325 18.0356C16.9325 18.6054 16.5419 18.996 15.9734 18.9986C15.058 19.0023 14.1421 18.9986 13.1804 18.9986V19.6246C13.1804 20.3221 13.1804 21.0202 13.1804 21.7183C13.1804 22.3625 12.7916 22.7482 12.1524 22.7488C10.9549 22.7488 9.75716 22.7488 8.55924 22.7488C7.90247 22.7488 7.51868 22.3663 7.51492 21.6982C7.51305 20.8167 7.51305 19.932 7.51305 19.0023ZM15.0386 17.1278V15.2495C14.0995 15.2495 13.1867 15.2495 12.2719 15.2495C11.6941 15.2495 11.3115 14.8845 11.2959 14.3035C11.2808 13.7519 11.2915 13.2003 11.2909 12.6481V11.5212H9.42199C9.42199 12.4177 9.42199 13.2918 9.42199 14.1658C9.42199 14.8739 9.04634 15.2483 8.34825 15.2489H5.66922V17.1272C6.58831 17.1272 7.48487 17.1272 8.37705 17.1272C9.01942 17.1272 9.41009 17.5028 9.42011 18.1464C9.42888 18.7393 9.42011 19.3329 9.42011 19.9264C9.42011 20.2351 9.42011 20.5437 9.42011 20.8618H11.2909V20.5112C11.2909 19.7411 11.2877 18.971 11.2909 18.2003C11.2946 17.4803 11.6502 17.1278 12.3621 17.1272C13.2493 17.1272 14.1327 17.1278 15.0405 17.1278H15.0386Z" fill="#9178CC"/>
<path d="M23.5296 9.62656C24.758 9.62656 25.9866 9.62656 27.2154 9.62656C27.8158 9.62656 28.2428 10.0172 28.2435 10.5619C28.2441 11.1066 27.8165 11.5011 27.2167 11.5011C24.7595 11.5011 22.3023 11.5011 19.8451 11.5011C19.2459 11.5011 18.8177 11.1085 18.8171 10.5619C18.8165 10.0154 19.2428 9.6228 19.8432 9.6228C21.0725 9.62447 22.3013 9.62572 23.5296 9.62656Z" fill="#9178CC"/>
<path d="M23.4983 15.2515C22.28 15.2515 21.0616 15.2515 19.8432 15.2515C19.2447 15.2515 18.8165 14.857 18.8171 14.3123C18.8177 13.7676 19.2447 13.377 19.8451 13.377C22.3027 13.377 24.7599 13.377 27.2167 13.377C27.8171 13.377 28.2441 13.7695 28.2435 14.3161C28.2428 14.8627 27.8158 15.2521 27.2154 15.2552C25.9762 15.254 24.7372 15.2527 23.4983 15.2515Z" fill="#9178CC"/>
<path d="M23.5096 19.0023C22.2921 19.0023 21.074 19.0023 19.8552 19.0023C19.251 19.0023 18.8246 18.6198 18.8171 18.0763C18.8096 17.521 19.2416 17.1284 19.8646 17.1284C22.3113 17.1284 24.7583 17.1284 27.2054 17.1284C27.8109 17.1284 28.236 17.5097 28.2435 18.0544C28.251 18.6091 27.8184 19.0023 27.1961 19.0023C25.9673 19.0031 24.7384 19.0031 23.5096 19.0023Z" fill="#9178CC"/>
<path d="M22.5598 22.7525C21.6445 22.7525 20.7292 22.7525 19.8138 22.7525C19.2428 22.7525 18.8183 22.35 18.8171 21.8178C18.8158 21.2856 19.2384 20.8787 19.8094 20.8787C21.661 20.8787 23.5125 20.8787 25.3641 20.8787C25.9319 20.8787 26.3621 21.285 26.3658 21.8128C26.3696 22.3406 25.9363 22.7519 25.371 22.7519C24.4318 22.7544 23.4958 22.7525 22.5598 22.7525Z" fill="#9178CC"/>
</svg>
