<svg width="32" height="32" viewBox="0 0 32 32" fill="none" xmlns="http://www.w3.org/2000/svg">
<path d="M0 16.7175C0.0533333 16.5316 0.1025 16.3441 0.161667 16.1608C0.64 14.6666 1.64333 13.7241 3.14167 13.2875C3.20175 13.2708 3.25784 13.2421 3.30653 13.2031C3.35523 13.1642 3.39553 13.1157 3.425 13.0608C4.53833 9.90329 6.5525 7.49996 9.44 5.81579C9.47305 5.7923 9.50477 5.76698 9.535 5.73995C7.59333 4.93495 6.55917 3.49995 6.41667 1.38579H8.31167C8.37 2.39829 8.81167 3.20329 9.7 3.72995C10.2775 4.07079 10.9058 4.12579 11.6 4.06329C11.0425 3.24995 10.7442 2.37829 10.7317 1.39162H12.6067C12.6458 1.94912 12.7825 2.47495 13.1183 2.93412C13.6958 3.71829 14.4767 4.09662 15.4517 4.08662C16.9975 4.06996 18.5217 4.22079 19.9925 4.72079C24.1247 6.12579 26.9522 8.87579 28.475 12.9708C28.5408 13.1466 28.61 13.2541 28.8208 13.3041C30.5933 13.75 31.8908 15.4 31.9433 17.1666C32.0067 19.2741 30.5617 20.91 28.9 21.3333C28.65 21.3975 28.5342 21.5191 28.4433 21.7558C26.6483 26.4566 23.2767 29.3916 18.36 30.3391C11.9167 31.5833 5.65583 27.8783 3.46167 21.6816C3.43793 21.6003 3.39223 21.5271 3.32961 21.4701C3.26698 21.413 3.18984 21.3743 3.10667 21.3583C1.44 20.8583 0.404167 19.7658 0.0575 18.045C0.0429698 17.9957 0.0237136 17.948 0 17.9025L0 16.7175ZM12.8975 9.05079C12.9033 9.11662 12.9083 9.16579 12.9117 9.21746C13.0517 11.045 14.6358 12.3125 16.4483 12.0508C17.1253 11.9435 17.7468 11.6124 18.2136 11.1105C18.6804 10.6085 18.9655 9.96462 19.0233 9.28162C19.1375 7.86495 18.2192 6.51162 16.8567 6.11495C16.0233 5.87329 15.19 5.97662 14.3567 6.10496C10.9675 6.62412 8.33333 8.33329 6.4275 11.1775C5.6875 12.2841 5.20667 13.5058 4.89 14.7933C4.84417 14.98 4.7725 15.05 4.58 15.0433C4.32936 15.0419 4.07888 15.0561 3.83 15.0858C2.73333 15.2 1.83833 16.2525 1.87 17.3791C1.9025 18.5208 2.83667 19.5225 3.93 19.59C4.21917 19.6083 4.58583 19.5325 4.77417 19.6808C4.9625 19.8291 4.96917 20.2025 5.04917 20.4791C6.72583 26.2766 12.6908 29.8125 18.5342 28.375C22.7883 27.3308 25.5617 24.635 26.8842 20.4583C26.9675 20.2025 26.9583 19.8558 27.1292 19.7083C27.3 19.5608 27.635 19.6125 27.9 19.5991C29.4925 19.5158 30.5217 17.8416 29.8467 16.3933C29.39 15.4141 28.5617 15.0216 27.5183 15.0525C27.205 15.0616 27.0792 14.9691 27 14.6516C26.3333 11.985 24.8944 9.82912 22.6833 8.18412C22.0002 7.67165 21.2555 7.24694 20.4667 6.91996C21.27 9.54162 20.8058 11.4825 19.0575 12.8941C18.2949 13.5038 17.369 13.8744 16.3964 13.9594C15.4237 14.0444 14.4476 13.8399 13.5908 13.3716C12 12.5 10.8758 10.5833 11.0642 9.05412L12.8975 9.05079Z" fill="white"/>
<path d="M18.8817 21.5308L20.4875 22.4783C19.4775 24.0749 18.0542 24.9733 16.2009 25.0491C14.1592 25.1324 12.5892 24.2233 11.4442 22.4858L13.0575 21.5308C14.4617 23.7208 17.4942 23.7099 18.8817 21.5308Z" fill="white"/>
<path d="M24.4167 17.6975H22.5675C22.3767 16.8642 21.9717 16.495 21.2775 16.5167C20.6575 16.5367 20.2508 16.9442 20.1108 17.6967H18.2933C18.0883 16.2292 19.5325 14.7225 21.2325 14.6134C22.9083 14.5109 24.4292 15.9709 24.4167 17.6975Z" fill="white"/>
<path d="M9.37169 17.6967H7.51419C7.54169 16.6459 7.95669 15.8025 8.80669 15.205C9.82919 14.4859 10.9267 14.4184 12.0417 14.9809C12.5376 15.2359 12.9525 15.6243 13.2396 16.1023C13.5267 16.5804 13.6746 17.1291 13.6667 17.6867H11.825C11.7667 17.3067 11.6459 16.92 11.27 16.7259C11.0344 16.6031 10.7739 16.5359 10.5084 16.5292C9.91086 16.5259 9.53919 16.93 9.37169 17.6967Z" fill="white"/>
</svg>
