<svg width="33" height="32" viewBox="0 0 33 32" fill="none" xmlns="http://www.w3.org/2000/svg">
<path d="M0.666656 16.7174C0.71999 16.5316 0.769156 16.3441 0.828323 16.1608C1.30666 14.6666 2.30999 13.7241 3.80832 13.2874C3.86841 13.2708 3.9245 13.2421 3.97319 13.2031C4.02189 13.1642 4.06219 13.1157 4.09166 13.0608C5.20499 9.90327 7.21916 7.49994 10.1067 5.81577C10.1397 5.79228 10.1714 5.76696 10.2017 5.73994C8.25999 4.93494 7.22582 3.49994 7.08332 1.38577H8.97832C9.03666 2.39827 9.47832 3.20327 10.3667 3.72994C10.9442 4.07077 11.5725 4.12577 12.2667 4.06327C11.7092 3.24994 11.4108 2.37827 11.3983 1.39161H13.2733C13.3125 1.94911 13.4492 2.47494 13.785 2.93411C14.3625 3.71827 15.1433 4.09661 16.1183 4.08661C17.6642 4.06994 19.1883 4.22077 20.6592 4.72077C24.7914 6.12577 27.6189 8.87577 29.1417 12.9708C29.2075 13.1466 29.2767 13.2541 29.4875 13.3041C31.26 13.7499 32.5575 15.3999 32.61 17.1666C32.6733 19.2741 31.2283 20.9099 29.5667 21.3333C29.3167 21.3974 29.2008 21.5191 29.11 21.7558C27.315 26.4566 23.9433 29.3916 19.0267 30.3391C12.5833 31.5833 6.32249 27.8783 4.12832 21.6816C4.10458 21.6003 4.05889 21.5271 3.99626 21.4701C3.93364 21.413 3.8565 21.3743 3.77332 21.3583C2.10666 20.8583 1.07082 19.7658 0.724156 18.0449C0.709626 17.9957 0.69037 17.948 0.666656 17.9024L0.666656 16.7174ZM13.5642 9.05077C13.57 9.11661 13.575 9.16577 13.5783 9.21744C13.7183 11.0449 15.3025 12.3124 17.115 12.0508C17.792 11.9435 18.4135 11.6124 18.8803 11.1105C19.347 10.6085 19.6321 9.9646 19.69 9.28161C19.8042 7.86494 18.8858 6.51161 17.5233 6.11494C16.69 5.87327 15.8567 5.97661 15.0233 6.10494C11.6342 6.62411 8.99999 8.33327 7.09416 11.1774C6.35416 12.2841 5.87332 13.5058 5.55666 14.7933C5.51082 14.9799 5.43916 15.0499 5.24666 15.0433C4.99602 15.0419 4.74553 15.0561 4.49666 15.0858C3.39999 15.1999 2.50499 16.2524 2.53666 17.3791C2.56916 18.5208 3.50332 19.5224 4.59666 19.5899C4.88582 19.6083 5.25249 19.5324 5.44082 19.6808C5.62916 19.8291 5.63582 20.2024 5.71582 20.4791C7.39249 26.2766 13.3575 29.8124 19.2008 28.3749C23.455 27.3308 26.2283 24.6349 27.5508 20.4583C27.6342 20.2024 27.625 19.8558 27.7958 19.7083C27.9667 19.5608 28.3017 19.6124 28.5667 19.5991C30.1592 19.5158 31.1883 17.8416 30.5133 16.3933C30.0567 15.4141 29.2283 15.0216 28.185 15.0524C27.8717 15.0616 27.7458 14.9691 27.6667 14.6516C27 11.9849 25.5611 9.82911 23.35 8.18411C22.6669 7.67163 21.9222 7.24692 21.1333 6.91994C21.9367 9.54161 21.4725 11.4824 19.7242 12.8941C18.9615 13.5038 18.0357 13.8744 17.063 13.9594C16.0903 14.0443 15.1143 13.8398 14.2575 13.3716C12.6667 12.4999 11.5425 10.5833 11.7308 9.05411L13.5642 9.05077Z" fill="#9178CC"/>
<path d="M19.5483 21.5308L21.1542 22.4783C20.1442 24.075 18.7208 24.9733 16.8675 25.0491C14.8258 25.1325 13.2558 24.2233 12.1108 22.4858L13.7242 21.5308C15.1283 23.7208 18.1608 23.71 19.5483 21.5308Z" fill="#9178CC"/>
<path d="M25.0833 17.6975H23.2341C23.0433 16.8642 22.6383 16.495 21.9441 16.5167C21.3241 16.5367 20.9175 16.9442 20.7775 17.6967H18.96C18.755 16.2292 20.1991 14.7225 21.8991 14.6134C23.575 14.5109 25.0958 15.9709 25.0833 17.6975Z" fill="#9178CC"/>
<path d="M10.0383 17.6967H8.18085C8.20835 16.6458 8.62335 15.8025 9.47335 15.205C10.4958 14.4858 11.5933 14.4183 12.7083 14.9808C13.2043 15.2359 13.6191 15.6243 13.9062 16.1023C14.1933 16.5804 14.3412 17.1291 14.3333 17.6867H12.4917C12.4333 17.3067 12.3125 16.92 11.9367 16.7258C11.7011 16.6031 11.4406 16.5359 11.175 16.5292C10.5775 16.5258 10.2058 16.93 10.0383 17.6967Z" fill="#9178CC"/>
</svg>
